# Blender 5.1.2
# www.blender.org
mtllib warship.mtl
o Cube.001
v -0.131855 0.057481 0.024775
v -0.131855 0.428392 0.056356
v -0.131855 0.057481 -0.925330
v -0.131855 0.428392 -0.925330
v 0.132532 0.057481 0.024775
v 0.132532 0.428392 0.056356
v 0.132532 0.057481 -0.925330
v 0.132532 0.428392 -0.925330
v -0.131855 0.297308 0.024775
v -0.131855 0.297308 -0.925330
v 0.132532 0.297308 -0.925330
v 0.132532 0.297308 0.024775
v -0.131855 0.057481 -0.232056
v -0.131855 0.428392 -0.209011
v 0.132532 0.057481 -0.232056
v 0.132532 0.428392 -0.209011
v 0.132532 0.297308 -0.232056
v -0.131855 0.297308 -0.232056
v -0.131855 0.428392 -0.721839
v 0.132532 0.057481 -0.728385
v -0.131855 0.297308 -0.728385
v -0.131855 0.057481 -0.728385
v 0.132532 0.428392 -0.721839
v 0.132532 0.297308 -0.728385
v 0.219818 0.428392 -0.721839
v 0.219818 0.428392 -0.209011
v 0.219818 0.297308 -0.728385
v 0.219818 0.297308 -0.232056
v 0.219818 0.057481 -0.232056
v 0.219818 0.057481 -0.728385
v -0.203280 0.057481 -0.728385
v -0.203280 0.057481 -0.232056
v -0.203280 0.297308 -0.232056
v -0.203280 0.428392 -0.209011
v -0.203280 0.428392 -0.721839
v -0.203280 0.297308 -0.728385
v 0.132532 0.473034 -0.721839
v 0.132532 0.473034 -0.209011
v -0.131855 0.473034 -0.209011
v -0.131855 0.473034 -0.721839
v -0.194326 -0.072417 1.592929
v -0.272962 0.131522 1.588222
v 0.194326 -0.072417 1.592929
v 0.272962 0.131522 1.588222
v -0.167848 -0.072417 1.680481
v -0.235769 0.144602 1.797819
v 0.235769 0.144602 1.797819
v 0.167848 -0.072417 1.680481
v -0.089951 -0.072417 1.831957
v -0.126350 0.159344 1.948362
v 0.126350 0.159344 1.948362
v 0.089951 -0.072417 1.831957
v -0.016131 -0.072417 1.886056
v -0.022658 0.164609 2.002127
v 0.022658 0.164609 2.002127
v 0.016131 -0.072417 1.886056
v -0.194326 -0.072417 0.000000
v -0.272962 0.071098 0.000000
v 0.194326 -0.072417 0.000000
v 0.272962 0.071098 0.000000
v -0.194326 -0.072417 -1.592929
v -0.272962 0.071098 -1.592929
v 0.194326 -0.072417 -1.592929
v 0.272962 0.071098 -1.592929
v -0.167848 -0.072417 -1.718133
v -0.235769 0.071098 -1.803826
v 0.235769 0.071098 -1.803826
v 0.167848 -0.072417 -1.718133
v -0.089951 -0.072417 -1.869610
v -0.126350 0.071098 -1.955302
v 0.126350 0.071098 -1.955302
v 0.089951 -0.072417 -1.869610
v -0.016131 -0.072417 -1.923709
v -0.022658 0.071098 -2.009401
v 0.022658 0.071098 -2.009401
v 0.016131 -0.072417 -1.923709
v -0.075142 0.156930 0.494661
v -0.075142 0.261497 0.652542
v -0.062602 0.151185 0.499680
v -0.066836 0.257692 0.655867
v -0.062602 0.139695 0.509719
v -0.066836 0.250082 0.662516
v -0.075142 0.133950 0.514739
v -0.075142 0.246277 0.665841
v -0.087683 0.139695 0.509719
v -0.083449 0.250082 0.662516
v -0.087683 0.151185 0.499680
v -0.083449 0.257692 0.655867
v -0.109126 0.041605 0.554065
v -0.109126 0.123439 0.554065
v -0.109126 0.041605 0.304709
v -0.109126 0.183571 0.304709
v 0.109802 0.041605 0.554065
v 0.109802 0.123439 0.554065
v 0.109802 0.041605 0.304709
v 0.109802 0.183571 0.304709
v -0.109126 0.225072 0.025748
v -0.109126 0.041605 0.025748
v 0.109802 0.041605 0.025748
v 0.109802 0.225072 0.025748
v -0.109126 0.289669 0.229305
v 0.109802 0.289669 0.229305
v -0.109126 0.289669 0.025748
v 0.109802 0.289669 0.025748
v -0.109126 0.041605 0.488356
v -0.109126 0.184040 0.488356
v 0.109802 0.041605 0.488356
v 0.109802 0.184040 0.488356
v -0.075142 0.238449 0.249878
v -0.075142 0.343016 0.407760
v -0.062602 0.232704 0.254898
v -0.066836 0.339211 0.411085
v -0.062602 0.221214 0.264937
v -0.066836 0.331601 0.417734
v -0.075142 0.215469 0.269956
v -0.075142 0.327796 0.421058
v -0.087683 0.221214 0.264937
v -0.083449 0.331601 0.417734
v -0.087683 0.232704 0.254898
v -0.083449 0.339211 0.411085
v 0.004888 0.238449 0.249878
v 0.004888 0.343016 0.407760
v 0.017429 0.232704 0.254898
v 0.013195 0.339211 0.411085
v 0.017429 0.221214 0.264937
v 0.013195 0.331601 0.417734
v 0.004888 0.215469 0.269956
v 0.004888 0.327796 0.421058
v -0.007652 0.221214 0.264937
v -0.003418 0.331601 0.417734
v -0.007652 0.232704 0.254898
v -0.003418 0.339211 0.411085
v 0.078166 0.238449 0.249878
v 0.078166 0.343016 0.407760
v 0.090707 0.232704 0.254898
v 0.086472 0.339211 0.411085
v 0.090707 0.221214 0.264937
v 0.086472 0.331601 0.417734
v 0.078166 0.215469 0.269956
v 0.078166 0.327796 0.421058
v 0.065625 0.221214 0.264937
v 0.069860 0.331601 0.417734
v 0.065625 0.232704 0.254898
v 0.069860 0.339211 0.411085
v 0.078166 0.156930 0.494661
v 0.078166 0.261497 0.652542
v 0.090707 0.151185 0.499680
v 0.086472 0.257692 0.655867
v 0.090707 0.139695 0.509719
v 0.086472 0.250082 0.662516
v 0.078166 0.133950 0.514739
v 0.078166 0.246277 0.665841
v 0.065625 0.139695 0.509719
v 0.069860 0.250082 0.662516
v 0.065625 0.151185 0.499680
v 0.069860 0.257692 0.655867
v 0.004888 0.156930 0.494661
v 0.004888 0.261497 0.652542
v 0.017429 0.151185 0.499680
v 0.013195 0.257692 0.655867
v 0.017429 0.139695 0.509719
v 0.013195 0.250082 0.662516
v 0.004888 0.133950 0.514739
v 0.004888 0.246277 0.665841
v -0.007652 0.139695 0.509719
v -0.003418 0.250082 0.662516
v -0.007652 0.151185 0.499680
v -0.003418 0.257692 0.655867
v 0.079417 0.156930 -1.383966
v 0.079418 0.261497 -1.541848
v 0.066877 0.151185 -1.388985
v 0.071111 0.257692 -1.545172
v 0.066877 0.139695 -1.399024
v 0.071111 0.250082 -1.551821
v 0.079417 0.133950 -1.404044
v 0.079418 0.246277 -1.555146
v 0.091958 0.139695 -1.399024
v 0.087724 0.250082 -1.551821
v 0.091958 0.151185 -1.388985
v 0.087724 0.257692 -1.545172
v 0.113401 0.041605 -1.443370
v 0.113401 0.123439 -1.443370
v 0.113401 0.041605 -1.194014
v 0.113401 0.183571 -1.194014
v -0.105527 0.041605 -1.443370
v -0.105527 0.123439 -1.443370
v -0.105527 0.041605 -1.194014
v -0.105527 0.183571 -1.194014
v 0.113401 0.225072 -0.915053
v 0.113401 0.041605 -0.915053
v -0.105527 0.041605 -0.915053
v -0.105527 0.225072 -0.915053
v 0.113401 0.289669 -1.118610
v -0.105527 0.289669 -1.118610
v 0.113401 0.289669 -0.915053
v -0.105527 0.289669 -0.915053
v 0.113401 0.041605 -1.377661
v 0.113401 0.184040 -1.377661
v -0.105527 0.041605 -1.377661
v -0.105527 0.184040 -1.377661
v 0.079417 0.238449 -1.139183
v 0.079417 0.343016 -1.297065
v 0.066877 0.232704 -1.144203
v 0.071111 0.339211 -1.300390
v 0.066877 0.221214 -1.154242
v 0.071111 0.331601 -1.307039
v 0.079417 0.215469 -1.159261
v 0.079417 0.327796 -1.310363
v 0.091958 0.221214 -1.154242
v 0.087724 0.331601 -1.307039
v 0.091958 0.232704 -1.144203
v 0.087724 0.339211 -1.300390
v -0.000613 0.238449 -1.139183
v -0.000613 0.343016 -1.297065
v -0.013154 0.232704 -1.144203
v -0.008920 0.339211 -1.300390
v -0.013154 0.221214 -1.154242
v -0.008920 0.331601 -1.307039
v -0.000613 0.215469 -1.159261
v -0.000613 0.327796 -1.310363
v 0.011927 0.221214 -1.154242
v 0.007693 0.331601 -1.307039
v 0.011927 0.232704 -1.144203
v 0.007693 0.339211 -1.300390
v -0.073891 0.238449 -1.139183
v -0.073891 0.343016 -1.297065
v -0.086432 0.232704 -1.144203
v -0.082197 0.339211 -1.300390
v -0.086432 0.221214 -1.154242
v -0.082197 0.331601 -1.307039
v -0.073891 0.215469 -1.159261
v -0.073891 0.327796 -1.310363
v -0.061350 0.221214 -1.154242
v -0.065585 0.331601 -1.307039
v -0.061350 0.232704 -1.144203
v -0.065585 0.339211 -1.300390
v -0.073891 0.156930 -1.383966
v -0.073891 0.261497 -1.541848
v -0.086432 0.151185 -1.388985
v -0.082197 0.257692 -1.545172
v -0.086432 0.139695 -1.399024
v -0.082197 0.250082 -1.551821
v -0.073891 0.133950 -1.404044
v -0.073891 0.246277 -1.555146
v -0.061350 0.139695 -1.399024
v -0.065585 0.250082 -1.551821
v -0.061350 0.151185 -1.388985
v -0.065585 0.257692 -1.545172
v -0.000613 0.156930 -1.383966
v -0.000613 0.261497 -1.541848
v -0.013154 0.151185 -1.388985
v -0.008919 0.257692 -1.545172
v -0.013154 0.139695 -1.399024
v -0.008919 0.250082 -1.551821
v -0.000613 0.133950 -1.404044
v -0.000613 0.246277 -1.555146
v 0.011928 0.139695 -1.399024
v 0.007693 0.250082 -1.551821
v 0.011928 0.151185 -1.388985
v 0.007693 0.257692 -1.545172
vn -1.0000 -0.0000 -0.0000
vn -0.0000 -0.0000 -1.0000
vn 1.0000 -0.0000 -0.0000
vn -0.0000 -0.2342 0.9722
vn -0.0000 -1.0000 -0.0000
vn -0.0000 1.0000 -0.0000
vn -0.0000 -0.0000 1.0000
vn -0.0000 0.0499 -0.9988
vn -0.0000 -0.1731 0.9849
vn -0.9051 -0.3830 0.1845
vn -0.8770 -0.4805 -0.0000
vn 0.8770 -0.4805 -0.0000
vn -0.0000 0.9952 -0.0975
vn -0.0000 0.9981 -0.0623
vn 0.8999 -0.3407 0.2722
vn 0.7872 -0.4652 0.4048
vn -0.7234 -0.3972 0.5647
vn -0.0000 -0.4398 0.8981
vn -0.4030 -0.4114 0.8175
vn 0.5291 -0.4457 0.7220
vn -0.8623 -0.4725 -0.1824
vn 0.8623 -0.4725 -0.1824
vn 0.7306 -0.5701 -0.3757
vn -0.7306 -0.5701 -0.3757
vn -0.0000 -0.5127 -0.8586
vn -0.4998 -0.5340 -0.6820
vn 0.4998 -0.5340 -0.6820
vn 0.5163 0.7140 -0.4729
vn 0.9997 0.0148 0.0170
vn 0.5185 -0.6862 0.5101
vn -0.5185 -0.6862 0.5101
vn -0.0000 0.6580 0.7530
vn -0.9997 0.0148 0.0170
vn -0.5163 0.7140 -0.4729
vn -0.0000 -0.6580 -0.7530
vn -0.0000 0.7351 0.6780
vn -0.0000 0.5793 0.8151
vn -0.0000 1.0000 -0.0026
vn -0.5163 0.7140 0.4729
vn -0.9997 0.0148 -0.0170
vn -0.5185 -0.6862 -0.5101
vn 0.5185 -0.6862 -0.5101
vn -0.0000 0.6580 -0.7531
vn 0.9997 0.0148 -0.0170
vn 0.5163 0.7140 0.4729
vn -0.0000 -0.6580 0.7530
vn -0.0000 0.7351 -0.6780
vn -0.0000 0.5793 -0.8151
vn -0.0000 1.0000 0.0026
vn -0.0000 0.6580 -0.7530
vn -0.0000 -0.6580 0.7531
vn -0.0000 0.6579 -0.7531
vn -0.8999 -0.3407 0.2722
vn -0.9330 -0.3598 -0.0000
vn -0.8768 -0.4804 0.0183
vn 0.8768 -0.4804 0.0183
vn 0.9330 -0.3598 -0.0000
vn 0.9051 -0.3830 0.1845
vn 0.7234 -0.3972 0.5647
vn -0.7872 -0.4652 0.4048
vn -0.5291 -0.4457 0.7220
vn 0.4030 -0.4114 0.8175
vn -0.8557 -0.4951 -0.1509
vn 0.8557 -0.4951 -0.1509
vn 0.7087 -0.4854 -0.5119
vn -0.7087 -0.4854 -0.5119
vn -0.4052 -0.4822 -0.7767
vn 0.4052 -0.4822 -0.7767
vn -0.0000 0.9993 -0.0380
vn -0.0000 0.6580 0.7531
vt 0.536647 0.198178
vt 0.625000 0.250000
vt 0.536647 0.250000
vt 0.536647 0.500000
vt 0.625000 0.682420
vt 0.536647 0.750000
vt 0.536647 0.682420
vt 0.625000 0.750000
vt 0.536647 1.000000
vt 0.375000 0.682420
vt 0.125000 0.750000
vt 0.125000 0.682420
vt 0.875000 0.682420
vt 0.375000 1.000000
vt 0.375000 0.750000
vt 0.375000 0.500000
vt 0.375000 0.250000
vt 0.375000 0.198178
vt 0.536647 0.000000
vt 0.375000 0.067580
vt 0.375000 0.000000
vt 0.536647 0.551822
vt 0.375000 0.551822
vt 0.625000 0.551822
vt 0.125000 0.551822
vt 0.625000 0.067580
vt 0.536647 0.067580
vt 0.625000 0.500000
vt 0.125000 0.500000
vt 0.875000 0.500000
vt 0.875000 0.551822
vt 0.625000 0.198178
vt 0.375000 0.625000
vt 0.125000 0.625000
vt 0.625000 0.000000
vt 0.625000 0.125000
vt 0.375000 0.125000
vt 0.625000 0.625000
vt 0.875000 0.750000
vt 1.000000 1.000000
vt 0.833333 0.500000
vt 1.000000 0.500000
vt 0.833333 1.000000
vt 0.666667 0.500000
vt 0.666667 1.000000
vt 0.500000 0.500000
vt 0.333333 1.000000
vt 0.333333 0.500000
vt 0.042154 0.130000
vt 0.250000 0.010000
vt 0.457846 0.130000
vt 0.166667 1.000000
vt 0.166667 0.500000
vt -0.000000 1.000000
vt -0.000000 0.500000
vt 0.542154 0.130000
vt 0.542154 0.370000
vt 0.957846 0.370000
vt 0.375000 0.065878
vt 0.375000 0.684122
vt 0.125000 0.684122
vt 0.875000 0.684122
vt 0.625000 0.684122
vt 0.957846 0.130000
vt 0.625000 1.000000
vt 0.875000 0.625000
vt 0.457846 0.370000
vt 0.042154 0.370000
vt 0.250000 0.490000
vt 0.500000 1.000000
vt 0.750000 0.490000
vt 0.750000 0.010000
vt 0.625000 0.065878
s 0
f 21/1/1 4/2/1 10/3/1
f 4/2/2 11/4/2 10/3/2
f 16/5/3 12/6/3 17/7/3
f 6/8/4 9/9/4 12/6/4
f 15/10/5 1/11/5 13/12/5
f 14/13/6 6/8/6 16/5/6
f 12/6/7 1/14/7 5/15/7
f 17/7/3 5/15/3 15/10/3
f 10/3/2 7/16/2 3/17/2
f 21/1/1 3/17/1 22/18/1
f 9/19/1 13/20/1 1/21/1
f 24/22/2 30/23/2 20/23/2
f 23/24/3 38/5/3 16/5/3
f 20/23/5 13/12/5 22/25/5
f 16/5/6 25/24/6 23/24/6
f 9/19/1 14/26/1 18/27/1
f 8/28/3 24/22/3 11/4/3
f 7/16/5 22/25/5 3/29/5
f 4/30/6 23/24/6 8/28/6
f 11/4/3 20/23/3 7/16/3
f 19/31/6 34/13/6 14/13/6
f 21/1/8 35/32/8 19/32/8
f 27/22/3 29/10/3 30/23/3
f 25/24/3 28/7/3 27/22/3
f 17/7/9 26/5/9 16/5/9
f 20/23/5 29/10/5 15/10/5
f 23/24/8 27/22/8 24/22/8
f 15/10/7 28/7/7 17/7/7
f 33/27/1 31/18/1 32/20/1
f 33/27/1 35/32/1 36/1/1
f 18/27/7 32/20/7 13/20/7
f 22/18/2 36/1/2 21/1/2
f 13/12/5 31/25/5 22/25/5
f 14/26/9 33/27/9 18/27/9
f 40/31/6 38/5/6 37/24/6
f 14/13/1 40/31/1 19/31/1
f 16/5/7 39/13/7 14/13/7
f 19/31/2 37/24/2 23/24/2
f 59/33/5 57/34/5 63/15/5
f 42/35/10 45/21/10 46/35/10
f 58/36/11 61/21/11 57/37/11
f 63/15/12 64/8/12 60/38/12
f 47/8/13 50/39/13 51/8/13
f 43/15/5 45/11/5 41/11/5
f 42/39/14 47/8/14 44/8/14
f 44/8/15 48/15/15 43/15/15
f 49/11/5 56/15/5 53/11/5
f 47/8/16 52/15/16 48/15/16
f 48/15/5 49/11/5 45/11/5
f 46/35/17 49/21/17 50/35/17
f 55/8/18 53/14/18 56/15/18
f 50/35/19 53/21/19 54/35/19
f 50/39/13 55/8/13 51/8/13
f 51/8/20 56/15/20 52/15/20
f 62/35/21 65/21/21 61/21/21
f 71/8/6 66/39/6 67/8/6
f 65/11/5 63/15/5 61/11/5
f 67/8/6 62/39/6 64/8/6
f 68/15/22 64/8/22 63/15/22
f 73/11/5 72/15/5 69/11/5
f 72/15/23 67/8/23 68/15/23
f 69/11/5 68/15/5 65/11/5
f 66/35/24 69/21/24 65/21/24
f 73/14/25 75/8/25 76/15/25
f 70/35/26 73/21/26 69/21/26
f 75/8/6 70/39/6 71/8/6
f 76/15/27 71/8/27 72/15/27
f 60/38/6 64/8/6 62/39/6
f 78/40/28 79/41/28 77/42/28
f 80/43/29 81/44/29 79/41/29
f 82/45/30 83/46/30 81/44/30
f 83/46/31 86/47/31 85/48/31
f 86/49/32 84/50/32 82/51/32
f 85/48/33 88/52/33 87/53/33
f 87/53/34 78/54/34 77/55/34
f 85/56/35 87/57/35 79/58/35
f 105/59/1 92/2/1 91/17/1
f 96/28/3 99/16/3 100/28/3
f 107/60/3 94/8/3 93/15/3
f 94/8/7 89/14/7 93/15/7
f 107/60/5 89/11/5 105/61/5
f 106/62/36 94/8/36 108/63/36
f 97/2/2 99/16/2 98/17/2
f 91/29/5 99/16/5 95/16/5
f 97/2/1 101/2/1 103/2/1
f 92/2/1 98/17/1 91/17/1
f 102/28/6 103/30/6 101/30/6
f 100/28/3 102/28/3 96/28/3
f 96/28/37 101/30/37 92/30/37
f 97/2/2 104/28/2 100/28/2
f 92/30/38 108/63/38 96/28/38
f 95/16/5 105/61/5 91/29/5
f 96/28/3 107/60/3 95/16/3
f 90/35/1 105/59/1 89/21/1
f 110/40/28 111/41/28 109/42/28
f 112/43/29 113/44/29 111/41/29
f 114/45/30 115/46/30 113/44/30
f 115/46/31 118/47/31 117/48/31
f 118/49/32 116/50/32 114/51/32
f 117/48/33 120/52/33 119/53/33
f 119/53/34 110/54/34 109/55/34
f 119/57/35 113/64/35 117/56/35
f 122/40/28 123/41/28 121/42/28
f 124/43/29 125/44/29 123/41/29
f 126/45/30 127/46/30 125/44/30
f 127/46/31 130/47/31 129/48/31
f 130/49/32 128/50/32 126/51/32
f 129/48/33 132/52/33 131/53/33
f 131/53/34 122/54/34 121/55/34
f 129/56/35 131/57/35 123/58/35
f 134/40/28 135/41/28 133/42/28
f 136/43/29 137/44/29 135/41/29
f 138/45/30 139/46/30 137/44/30
f 139/46/31 142/47/31 141/48/31
f 142/49/32 140/50/32 138/51/32
f 141/48/33 144/52/33 143/53/33
f 143/53/34 134/54/34 133/55/34
f 143/57/35 137/64/35 141/56/35
f 146/40/28 147/41/28 145/42/28
f 148/43/29 149/44/29 147/41/29
f 150/45/30 151/46/30 149/44/30
f 151/46/31 154/47/31 153/48/31
f 154/49/32 152/50/32 150/51/32
f 153/48/33 156/52/33 155/53/33
f 155/53/34 146/54/34 145/55/34
f 153/56/35 155/57/35 147/58/35
f 158/40/28 159/41/28 157/42/28
f 160/43/29 161/44/29 159/41/29
f 162/45/30 163/46/30 161/44/30
f 163/46/31 166/47/31 165/48/31
f 166/49/32 164/50/32 162/51/32
f 165/48/33 168/52/33 167/53/33
f 167/53/34 158/54/34 157/55/34
f 165/56/35 167/57/35 159/58/35
f 170/40/39 171/41/39 169/42/39
f 172/43/40 173/44/40 171/41/40
f 174/45/41 175/46/41 173/44/41
f 175/46/42 178/47/42 177/48/42
f 178/49/43 176/50/43 174/51/43
f 177/48/44 180/52/44 179/53/44
f 179/53/45 170/54/45 169/55/45
f 179/57/46 173/64/46 177/56/46
f 197/59/3 184/2/3 183/17/3
f 188/28/1 191/16/1 192/28/1
f 199/60/1 186/8/1 185/15/1
f 185/15/2 182/65/2 181/14/2
f 199/60/5 181/11/5 197/61/5
f 200/63/47 182/39/47 186/8/47
f 189/2/7 191/16/7 190/17/7
f 183/29/5 191/16/5 187/16/5
f 189/2/3 193/2/3 195/2/3
f 184/2/3 190/17/3 183/17/3
f 194/28/6 195/30/6 193/30/6
f 192/28/1 194/28/1 188/28/1
f 184/30/48 194/28/48 193/30/48
f 189/2/7 196/28/7 192/28/7
f 188/28/49 198/62/49 200/63/49
f 187/16/5 197/61/5 183/29/5
f 188/28/1 199/60/1 187/16/1
f 182/35/3 197/59/3 181/21/3
f 202/40/39 203/41/39 201/42/39
f 204/43/40 205/44/40 203/41/40
f 206/45/41 207/46/41 205/44/41
f 207/46/42 210/47/42 209/48/42
f 210/49/50 208/50/50 206/51/50
f 209/48/44 212/52/44 211/53/44
f 211/53/45 202/54/45 201/55/45
f 211/57/46 205/64/46 209/56/46
f 214/40/39 215/41/39 213/42/39
f 216/43/40 217/44/40 215/41/40
f 218/45/41 219/46/41 217/44/41
f 219/46/42 222/47/42 221/48/42
f 222/49/50 220/50/50 218/51/50
f 221/48/44 224/52/44 223/53/44
f 223/53/45 214/54/45 213/55/45
f 221/56/51 223/57/51 215/58/51
f 226/40/39 227/41/39 225/42/39
f 228/43/40 229/44/40 227/41/40
f 230/45/41 231/46/41 229/44/41
f 231/46/42 234/47/42 233/48/42
f 234/49/50 232/50/50 230/51/50
f 233/48/44 236/52/44 235/53/44
f 235/53/45 226/54/45 225/55/45
f 235/57/46 229/64/46 233/56/46
f 238/40/39 239/41/39 237/42/39
f 240/43/40 241/44/40 239/41/40
f 242/45/41 243/46/41 241/44/41
f 243/46/42 246/47/42 245/48/42
f 246/49/52 244/50/52 242/51/52
f 245/48/44 248/52/44 247/53/44
f 247/53/45 238/54/45 237/55/45
f 247/57/46 241/64/46 245/56/46
f 250/40/39 251/41/39 249/42/39
f 252/43/40 253/44/40 251/41/40
f 254/45/41 255/46/41 253/44/41
f 255/46/42 258/47/42 257/48/42
f 258/49/52 256/50/52 254/51/52
f 257/48/44 260/52/44 259/53/44
f 259/53/45 250/54/45 249/55/45
f 257/56/46 259/57/46 251/58/46
f 40/31/6 39/13/6 38/5/6
f 59/33/5 43/15/5 41/11/5
f 57/34/5 61/11/5 63/15/5
f 59/33/5 41/11/5 57/34/5
f 42/35/53 41/21/53 45/21/53
f 57/37/54 41/21/54 42/35/54
f 58/36/11 62/35/11 61/21/11
f 57/37/55 42/35/55 58/36/55
f 60/38/56 44/8/56 59/33/56
f 44/8/57 43/15/57 59/33/57
f 59/33/12 63/15/12 60/38/12
f 47/8/13 46/39/13 50/39/13
f 43/15/5 48/15/5 45/11/5
f 42/39/14 46/39/14 47/8/14
f 44/8/58 47/8/58 48/15/58
f 49/11/5 52/15/5 56/15/5
f 47/8/59 51/8/59 52/15/59
f 48/15/5 52/15/5 49/11/5
f 46/35/60 45/21/60 49/21/60
f 55/8/18 54/65/18 53/14/18
f 50/35/61 49/21/61 53/21/61
f 50/39/13 54/39/13 55/8/13
f 51/8/62 55/8/62 56/15/62
f 62/35/63 66/35/63 65/21/63
f 71/8/6 70/39/6 66/39/6
f 65/11/5 68/15/5 63/15/5
f 67/8/6 66/39/6 62/39/6
f 68/15/64 67/8/64 64/8/64
f 73/11/5 76/15/5 72/15/5
f 72/15/65 71/8/65 67/8/65
f 69/11/5 72/15/5 68/15/5
f 66/35/66 70/35/66 69/21/66
f 73/14/25 74/65/25 75/8/25
f 70/35/67 74/35/67 73/21/67
f 75/8/6 74/39/6 70/39/6
f 76/15/68 75/8/68 71/8/68
f 62/39/6 58/66/6 60/38/6
f 58/66/69 42/39/69 60/38/69
f 42/39/69 44/8/69 60/38/69
f 97/2/2 100/28/2 99/16/2
f 97/2/2 103/2/2 104/28/2
f 174/51/50 172/67/50 180/68/50
f 172/67/43 170/69/43 180/68/43
f 180/68/50 178/49/50 174/51/50
f 206/51/50 204/67/50 210/49/50
f 204/67/50 202/69/50 212/68/50
f 210/49/43 204/67/43 212/68/43
f 218/51/43 216/67/43 224/68/43
f 216/67/50 214/69/50 224/68/50
f 224/68/50 222/49/50 218/51/50
f 230/51/50 228/67/50 234/49/50
f 228/67/50 226/69/50 236/68/50
f 234/49/50 228/67/50 236/68/50
f 242/51/50 240/67/50 246/49/50
f 240/67/43 238/69/43 248/68/43
f 246/49/50 240/67/50 248/68/50
f 254/51/43 252/67/43 260/68/43
f 252/67/50 250/69/50 260/68/50
f 260/68/50 258/49/50 254/51/50
f 21/1/1 19/32/1 4/2/1
f 4/2/2 8/28/2 11/4/2
f 16/5/3 6/8/3 12/6/3
f 6/8/4 2/65/4 9/9/4
f 15/10/5 5/15/5 1/11/5
f 14/13/6 2/39/6 6/8/6
f 12/6/7 9/9/7 1/14/7
f 17/7/3 12/6/3 5/15/3
f 10/3/2 11/4/2 7/16/2
f 21/1/1 10/3/1 3/17/1
f 9/19/1 18/27/1 13/20/1
f 24/22/2 27/22/2 30/23/2
f 23/24/3 37/24/3 38/5/3
f 20/23/5 15/10/5 13/12/5
f 16/5/6 26/5/6 25/24/6
f 9/19/1 2/35/1 14/26/1
f 8/28/3 23/24/3 24/22/3
f 7/16/5 20/23/5 22/25/5
f 4/30/6 19/31/6 23/24/6
f 11/4/3 24/22/3 20/23/3
f 19/31/6 35/31/6 34/13/6
f 21/1/8 36/1/8 35/32/8
f 27/22/3 28/7/3 29/10/3
f 25/24/3 26/5/3 28/7/3
f 17/7/9 28/7/9 26/5/9
f 20/23/5 30/23/5 29/10/5
f 23/24/8 25/24/8 27/22/8
f 15/10/7 29/10/7 28/7/7
f 33/27/1 36/1/1 31/18/1
f 33/27/1 34/26/1 35/32/1
f 18/27/7 33/27/7 32/20/7
f 22/18/2 31/18/2 36/1/2
f 13/12/5 32/12/5 31/25/5
f 14/26/9 34/26/9 33/27/9
f 14/13/1 39/13/1 40/31/1
f 16/5/7 38/5/7 39/13/7
f 19/31/2 40/31/2 37/24/2
f 78/40/28 80/43/28 79/41/28
f 80/43/29 82/45/29 81/44/29
f 82/45/30 84/70/30 83/46/30
f 83/46/31 84/70/31 86/47/31
f 82/51/32 80/67/32 86/49/32
f 80/67/70 78/69/70 88/68/70
f 86/49/32 80/67/32 88/68/32
f 85/48/33 86/47/33 88/52/33
f 87/53/34 88/52/34 78/54/34
f 87/57/35 77/71/35 79/58/35
f 79/58/35 81/64/35 85/56/35
f 81/64/35 83/72/35 85/56/35
f 105/59/1 106/73/1 92/2/1
f 96/28/3 95/16/3 99/16/3
f 107/60/3 108/63/3 94/8/3
f 94/8/7 90/65/7 89/14/7
f 107/60/5 93/15/5 89/11/5
f 106/62/36 90/39/36 94/8/36
f 91/29/5 98/29/5 99/16/5
f 97/2/1 92/2/1 101/2/1
f 92/2/1 97/2/1 98/17/1
f 102/28/6 104/28/6 103/30/6
f 100/28/3 104/28/3 102/28/3
f 96/28/37 102/28/37 101/30/37
f 92/30/38 106/62/38 108/63/38
f 95/16/5 107/60/5 105/61/5
f 96/28/3 108/63/3 107/60/3
f 90/35/1 106/73/1 105/59/1
f 110/40/28 112/43/28 111/41/28
f 112/43/29 114/45/29 113/44/29
f 114/45/30 116/70/30 115/46/30
f 115/46/31 116/70/31 118/47/31
f 114/51/32 112/67/32 118/49/32
f 112/67/32 110/69/32 120/68/32
f 118/49/32 112/67/32 120/68/32
f 117/48/33 118/47/33 120/52/33
f 119/53/34 120/52/34 110/54/34
f 119/57/35 109/71/35 111/58/35
f 111/58/35 113/64/35 119/57/35
f 113/64/35 115/72/35 117/56/35
f 122/40/28 124/43/28 123/41/28
f 124/43/29 126/45/29 125/44/29
f 126/45/30 128/70/30 127/46/30
f 127/46/31 128/70/31 130/47/31
f 126/51/32 124/67/32 130/49/32
f 124/67/32 122/69/32 132/68/32
f 130/49/32 124/67/32 132/68/32
f 129/48/33 130/47/33 132/52/33
f 131/53/34 132/52/34 122/54/34
f 131/57/35 121/71/35 123/58/35
f 123/58/35 125/64/35 129/56/35
f 125/64/35 127/72/35 129/56/35
f 134/40/28 136/43/28 135/41/28
f 136/43/29 138/45/29 137/44/29
f 138/45/30 140/70/30 139/46/30
f 139/46/31 140/70/31 142/47/31
f 138/51/32 136/67/32 142/49/32
f 136/67/32 134/69/32 144/68/32
f 142/49/32 136/67/32 144/68/32
f 141/48/33 142/47/33 144/52/33
f 143/53/34 144/52/34 134/54/34
f 143/57/35 133/71/35 135/58/35
f 135/58/35 137/64/35 143/57/35
f 137/64/35 139/72/35 141/56/35
f 146/40/28 148/43/28 147/41/28
f 148/43/29 150/45/29 149/44/29
f 150/45/30 152/70/30 151/46/30
f 151/46/31 152/70/31 154/47/31
f 150/51/32 148/67/32 154/49/32
f 148/67/70 146/69/70 156/68/70
f 154/49/32 148/67/32 156/68/32
f 153/48/33 154/47/33 156/52/33
f 155/53/34 156/52/34 146/54/34
f 155/57/35 145/71/35 147/58/35
f 147/58/35 149/64/35 153/56/35
f 149/64/35 151/72/35 153/56/35
f 158/40/28 160/43/28 159/41/28
f 160/43/29 162/45/29 161/44/29
f 162/45/30 164/70/30 163/46/30
f 163/46/31 164/70/31 166/47/31
f 162/51/32 160/67/32 166/49/32
f 160/67/70 158/69/70 168/68/70
f 166/49/32 160/67/32 168/68/32
f 165/48/33 166/47/33 168/52/33
f 167/53/34 168/52/34 158/54/34
f 167/57/35 157/71/35 159/58/35
f 159/58/35 161/64/35 165/56/35
f 161/64/35 163/72/35 165/56/35
f 170/40/39 172/43/39 171/41/39
f 172/43/40 174/45/40 173/44/40
f 174/45/41 176/70/41 175/46/41
f 175/46/42 176/70/42 178/47/42
f 177/48/44 178/47/44 180/52/44
f 179/53/45 180/52/45 170/54/45
f 179/57/46 169/71/46 171/58/46
f 171/58/46 173/64/46 179/57/46
f 173/64/46 175/72/46 177/56/46
f 197/59/3 198/73/3 184/2/3
f 188/28/1 187/16/1 191/16/1
f 199/60/1 200/63/1 186/8/1
f 185/15/2 186/8/2 182/65/2
f 199/60/5 185/15/5 181/11/5
f 200/63/47 198/62/47 182/39/47
f 189/2/7 192/28/7 191/16/7
f 183/29/5 190/29/5 191/16/5
f 189/2/3 184/2/3 193/2/3
f 184/2/3 189/2/3 190/17/3
f 194/28/6 196/28/6 195/30/6
f 192/28/1 196/28/1 194/28/1
f 184/30/48 188/28/48 194/28/48
f 189/2/7 195/2/7 196/28/7
f 188/28/49 184/30/49 198/62/49
f 187/16/5 199/60/5 197/61/5
f 188/28/1 200/63/1 199/60/1
f 182/35/3 198/73/3 197/59/3
f 202/40/39 204/43/39 203/41/39
f 204/43/40 206/45/40 205/44/40
f 206/45/41 208/70/41 207/46/41
f 207/46/42 208/70/42 210/47/42
f 209/48/44 210/47/44 212/52/44
f 211/53/45 212/52/45 202/54/45
f 211/57/51 201/71/51 203/58/51
f 203/58/46 205/64/46 211/57/46
f 205/64/46 207/72/46 209/56/46
f 214/40/39 216/43/39 215/41/39
f 216/43/40 218/45/40 217/44/40
f 218/45/41 220/70/41 219/46/41
f 219/46/42 220/70/42 222/47/42
f 221/48/44 222/47/44 224/52/44
f 223/53/45 224/52/45 214/54/45
f 223/57/46 213/71/46 215/58/46
f 215/58/46 217/64/46 221/56/46
f 217/64/46 219/72/46 221/56/46
f 226/40/39 228/43/39 227/41/39
f 228/43/40 230/45/40 229/44/40
f 230/45/41 232/70/41 231/46/41
f 231/46/42 232/70/42 234/47/42
f 233/48/44 234/47/44 236/52/44
f 235/53/45 236/52/45 226/54/45
f 235/57/46 225/71/46 227/58/46
f 227/58/46 229/64/46 235/57/46
f 229/64/51 231/72/51 233/56/51
f 238/40/39 240/43/39 239/41/39
f 240/43/40 242/45/40 241/44/40
f 242/45/41 244/70/41 243/46/41
f 243/46/42 244/70/42 246/47/42
f 245/48/44 246/47/44 248/52/44
f 247/53/45 248/52/45 238/54/45
f 247/57/46 237/71/46 239/58/46
f 239/58/46 241/64/46 247/57/46
f 241/64/46 243/72/46 245/56/46
f 250/40/39 252/43/39 251/41/39
f 252/43/40 254/45/40 253/44/40
f 254/45/41 256/70/41 255/46/41
f 255/46/42 256/70/42 258/47/42
f 257/48/44 258/47/44 260/52/44
f 259/53/45 260/52/45 250/54/45
f 259/57/46 249/71/46 251/58/46
f 251/58/46 253/64/46 257/56/46
f 253/64/46 255/72/46 257/56/46
